<svg width="2751" height="2800" viewBox="0 0 2751 2800" fill="none" xmlns="http://www.w3.org/2000/svg">
<path d="M1370.25 438.24C961.82 435.64 638.64 898.52 638.64 1472.06C638.64 2045.6 961.82 2535.05 1370.25 2566.02C1789.87 2597.85 2138.57 2136.02 2138.57 1533.71C2138.57 931.4 1789.87 440.91 1370.25 438.24ZM1411.11 2512.24H1411.08C1398.94 2512.24 1386.61 2511.77 1374.44 2510.85C1194.74 2497.22 1025.31 2383.92 897.34 2191.82C766.2 1994.96 693.98 1739.34 693.98 1472.06C693.98 1204.78 765.54 957.61 895.47 772.44C1021.66 592.6 1189.06 493.56 1366.83 493.56H1369.9C1462.37 494.16 1552.77 520.92 1638.58 573.11C1723.43 624.72 1800.13 698.69 1866.53 792.97C1934.07 888.87 1987.23 1000.49 2024.54 1124.73C2063.49 1254.48 2083.24 1392.08 2083.24 1533.71C2083.24 1802.75 2011.11 2052.56 1880.14 2237.13C1754.25 2414.53 1587.68 2512.23 1411.11 2512.23V2512.24Z" fill="#203281"/>
<path d="M664.34 1472.06C664.34 938.85 943.68 501.28 1311.15 444.47C1285.33 440.52 839.83 438.41 813.38 438.24C404.95 435.64 81.77 898.52 81.77 1472.06C81.77 2045.6 404.96 2535.05 813.38 2566.02C854.87 2569.17 1315 2567.47 1354.83 2561.3C966.04 2501.84 664.33 2026.2 664.33 1472.05L664.34 1472.06Z" fill="#F5F5F5"/>
<path d="M800.31 436.96C899.91 463.91 1099.5 532.94 1270.77 713.88C1517.22 974.24 1508.85 1277.79 1517.06 1411.76C1523.74 1520.75 1586.91 2092.77 1185 2387.75C1028.23 2502.82 863.71 2536.61 767.22 2548.24C845.45 2554.17 1292.02 2560.11 1370.25 2566.04C1462.72 2552.18 1595.62 2518.74 1724.87 2429.25C2169.86 2121.19 2112.94 1466.58 2103.91 1377.9C2090.19 1243.17 2053.91 886.8 1760.84 636.42C1617.11 513.63 1464.85 461.81 1370.25 438.26C1303.05 437.83 867.51 437.4 800.31 436.98V436.96Z" fill="#0098F4"/>
<path d="M787.93 436.17C383.61 433.61 63.6401 894.73 63.6401 1466.05C63.6401 2037.37 383.61 2524.82 787.93 2555.54C1203.29 2587.1 1548.42 2127.03 1548.42 1527.16C1548.42 927.29 1203.29 438.81 787.93 436.17ZM828.23 2501.73H828.16C816.2 2501.73 804.08 2501.27 792.12 2500.36C614.46 2486.86 446.89 2374.15 320.3 2182.97C190.47 1986.92 118.97 1732.31 118.97 1466.05C118.97 1199.79 189.82 953.57 318.46 769.11C443.31 590.09 608.84 491.51 784.57 491.51H787.57C878.94 492.1 968.28 518.71 1053.1 570.61C1137.03 621.96 1212.9 695.59 1278.6 789.45C1345.45 884.94 1398.06 996.1 1434.97 1119.83C1473.53 1249.05 1493.08 1386.1 1493.08 1527.17C1493.08 1795.2 1421.68 2044.06 1292.02 2227.92C1167.5 2404.5 1002.77 2501.75 828.23 2501.75V2501.73Z" fill="#203281"/>
<path d="M2060.86 770.57L1358.27 764.34C1289.55 763.73 1233.16 820.08 1233.16 890.22V2029.04C1233.16 2099.17 1260.6 2136.99 1358.27 2155.48L1435.39 2160.64C1494.3 2153.17 2167 2007.34 2167 1943.49V887.13C2167 823.28 2119.77 771.1 2060.86 770.57Z" fill="#203281"/>
<path d="M2151.9 770.56L1451.24 764.33C1382.71 763.72 1326.48 820 1326.48 890.03V2048.66C1326.48 2118.7 1382.71 2168.34 1451.24 2159.64L2151.9 2070.77C2210.65 2063.32 2257.75 2005.65 2257.75 1941.89V886.96C2257.75 823.19 2210.65 771.08 2151.9 770.56Z" fill="#0098F4"/>
<path d="M2151.9 828.94L1451.24 826.98C1417.14 826.88 1389.24 855.08 1389.24 889.83V2041.48C1389.24 2076.23 1417.15 2101.13 1451.24 2097.01L2151.9 2012.41C2181.32 2008.86 2205.12 1979.94 2205.12 1947.93V887.14C2205.12 855.13 2181.32 829.02 2151.9 828.94Z" fill="#D8DEE8"/>
<g style="mix-blend-mode:soft-light" opacity="0.5">
<path d="M1716.24 1510C1631.88 1263.45 1775.77 1111.76 1698.85 870.54C1686.87 832.97 1671.14 798.26 1652.68 766.13L1451.25 764.34C1382.72 763.73 1326.49 820.01 1326.49 890.04V2048.67C1326.49 2118.7 1382.72 2168.35 1451.25 2159.65L2118.13 2075.07C2095.35 1998.38 2064.87 1937.91 2032.9 1889.53C1914.7 1710.68 1784.66 1709.94 1716.25 1510H1716.24Z" fill="white"/>
</g>
<g style="mix-blend-mode:soft-light">
<path d="M2138.57 880.07V1462.22L1439.16 1497.07V880.07H2138.57Z" fill="#203281"/>
</g>
<g style="mix-blend-mode:soft-light">
<path d="M1608.12 2043.83C1617.28 2043.83 2151.82 1987.22 2151.82 1987.22V1570.38L1608.12 1616.2V2043.83Z" fill="#203281"/>
</g>
<path d="M2686.82 448.92V902.08C2686.82 947.75 2668.07 988.63 2637.91 1018.31C2608.37 1047.35 2567.86 1064.86 2523.17 1064.86H1972.03C1881.68 1064.86 1810.11 992.43 1810.11 902.08V448.92C1810.11 394.3 1836.04 345.48 1877.16 315.77C1904.07 296.31 1936.3 284.41 1972.03 284.41H2523.17C2613.52 284.41 2686.82 358.57 2686.82 448.92Z" fill="#F5F5F5"/>
<path d="M2307.17 965.07L2029.65 1242.99C2023.6 1249.04 2013.91 1250.86 2005.96 1247.57C1998.05 1244.32 1992.32 1236.58 1992.32 1228.01V939.7L2307.17 965.07Z" fill="#F5F5F5"/>
<path d="M2405.8 675.96L2310.72 404.74H2183.84L2116.86 597.08L2011.08 899.83H2122.88L2158.4 776.06H2336.83L2372.31 899.83H2484.15L2405.8 675.96ZM2184.5 693.54C2194.09 662.6 2202.63 634.44 2210.15 609.77C2229.89 544.89 2242.45 501.99 2247.77 481.31C2249.56 489.32 2252.53 500.23 2256.66 514.05C2259.84 524.69 2271.43 562.48 2291.48 627.12C2297.57 646.72 2304.43 669.48 2312.06 693.54H2184.51H2184.5Z" fill="#203281"/>
<path d="M1947.62 1085.79V1538.95C1947.62 1581.08 1932.09 1620.4 1905.91 1649.41C1875.99 1682.58 1833.02 1704.34 1784.8 1704.34H1233.66C1143.31 1704.34 1067.47 1629.3 1067.47 1538.95V1085.79C1067.47 1028.19 1098.55 978.37 1143.55 949.22C1169.13 932.67 1200.91 923.89 1233.66 923.89H1784.8C1875.15 923.89 1947.62 995.44 1947.62 1085.79Z" fill="#F5F5F5"/>
<path d="M1761.97 1575.03V1863.34C1761.97 1871.91 1757.31 1879.61 1749.4 1882.9C1741.46 1886.19 1732.6 1884.37 1726.55 1878.32L1448.27 1600.4L1761.97 1575.03Z" fill="#F5F5F5"/>
<path d="M1748.22 1130.18H1270.32V1205.82H1748.22V1130.18Z" fill="#203281"/>
<path d="M1718.44 1570.22C1549.49 1531.07 1458.12 1424.62 1411.23 1342.22C1360.83 1253.65 1350.08 1174.21 1349.65 1170.86L1424.42 1161.17L1387.03 1166.02L1424.41 1161.08C1424.5 1161.77 1434.27 1231.34 1478.13 1307.31C1535.54 1406.76 1622.12 1470.5 1735.46 1496.76L1718.44 1570.22Z" fill="#203281"/>
<path d="M1301.29 1570.22L1284.27 1496.76C1397.61 1470.5 1484.19 1406.76 1541.6 1307.31C1585.46 1231.34 1595.22 1161.77 1595.32 1161.08L1670.08 1170.86C1669.65 1174.2 1658.9 1253.65 1608.5 1342.22C1561.61 1424.62 1470.24 1531.07 1301.29 1570.22Z" fill="#203281"/>
<path d="M1545.36 1054.54H1473.16V1164.56H1545.36V1054.54Z" fill="#203281"/>
<path d="M1112.26 1509.45L1128.78 1491.41L1137.38 1471.52C1138.87 1468.08 1141.23 1465.1 1144.24 1462.87L1149.18 1459.21C1152.01 1457.11 1155.44 1455.98 1158.97 1455.98H1175.17C1175.17 1455.98 1172.35 1461.26 1167.75 1462.07C1163.15 1462.88 1153.54 1473.72 1153.54 1473.72L1152.23 1486.44L1170.61 1473.03L1190.2 1450.52V1463.02C1190.2 1467.29 1188.66 1471.43 1185.87 1474.66L1169.98 1493.05C1166.06 1497.59 1160.66 1500.6 1154.73 1501.55L1150.81 1502.18C1142.66 1503.49 1135.4 1508.09 1130.74 1514.91L1119.57 1531.25L1112.27 1509.46L1112.26 1509.45Z" fill="url(#paint0_linear_2_68)"/>
<path d="M220.63 2108.85C220.63 2108.85 216.05 2130.38 212.07 2148.52C208.09 2166.66 192.14 2180.56 185.16 2195.04C178.18 2209.51 175.05 2192.57 173.13 2182.11C171.21 2171.65 173.13 2150.04 181.76 2142.65C190.39 2135.25 196.96 2128.8 196.54 2127.3C196.12 2125.81 202.08 2100.89 202.08 2100.89L220.63 2108.86V2108.85Z" fill="url(#paint1_linear_2_68)"/>
<path d="M412.01 2756.14C410.92 2751.65 411.65 2745.65 415.56 2741.63C420.83 2736.21 429.66 2736.66 435.2 2739.17C438.43 2740.63 440.94 2742.97 449.81 2761.47C459.19 2781.02 459.14 2784.17 457.64 2785.96C454.57 2789.59 445.97 2786.91 444.12 2786.33C437.96 2784.42 436.45 2781.49 423.75 2769.6C415.14 2761.54 413 2760.23 412.01 2756.14Z" fill="#0098F4"/>
<path d="M418.01 2725.58L420.16 2748.24C425.32 2750.92 428.53 2750.71 430.21 2748.24L434.54 2725.58H418.01Z" fill="url(#paint2_linear_2_68)"/>
<path d="M634.69 2753.31C631.66 2749.83 629.54 2744.17 631.16 2738.8C633.34 2731.56 641.38 2727.9 647.45 2727.57C650.99 2727.38 654.29 2728.3 670.69 2740.62C688.02 2753.65 689.44 2756.47 688.92 2758.74C687.87 2763.37 679 2764.96 677.09 2765.3C670.74 2766.44 668.05 2764.54 651.31 2759.84C639.96 2756.65 637.46 2756.48 634.69 2753.3V2753.31Z" fill="#0098F4"/>
<path d="M636.2 2715.46L638.35 2738.12C643.51 2740.8 646.71 2740.59 648.4 2738.12L652.73 2715.46H636.2Z" fill="url(#paint3_linear_2_68)"/>
<path d="M412.21 2730.02C420.36 2730.51 428.52 2731 436.67 2731.49C453.93 2647.28 472.89 2561.1 493.71 2473.08C516.53 2376.61 540.37 2283.09 564.93 2192.6C572.72 2227.04 580.42 2267.33 586.49 2312.62C595.5 2379.84 597.32 2431.34 597.76 2445.6C599.98 2518.51 593.63 2527.13 596.63 2572.65C598.99 2608.44 606.74 2661.03 632.69 2724.9C640.46 2724.42 648.23 2723.96 656.01 2723.49C673.02 2641.2 687.6 2541.2 691.72 2426.99C696.77 2286.92 684.65 2165.56 668.76 2069.85C598.13 2072.04 527.51 2074.24 456.89 2076.43C434.84 2125.65 424.8 2167.74 419.71 2197.34C409.48 2256.82 415.75 2286.17 408.05 2387.51C404.07 2439.88 401.17 2448.19 398.28 2482.97C393.5 2540.57 392.67 2623.76 412.2 2730.03L412.21 2730.02Z" fill="url(#paint4_linear_2_68)"/>
<path style="mix-blend-mode:multiply" opacity="0.3" d="M459.14 2529C465.58 2460.52 440.88 2461.93 452.38 2402.78C462.96 2348.35 485.41 2339.28 501.97 2269.79C515.26 2214.02 505.11 2201.78 515.49 2177.38C528.32 2147.22 565.8 2114.3 673.53 2100.32C671.99 2089.91 670.4 2079.71 668.76 2069.84C598.13 2072.03 527.51 2074.23 456.89 2076.42C434.84 2125.64 424.8 2167.73 419.71 2197.33C409.48 2256.81 415.75 2286.16 408.05 2387.5C404.07 2439.87 401.17 2448.18 398.28 2482.96C393.5 2540.56 392.67 2623.75 412.2 2730.02C420.35 2730.51 428.51 2731 436.66 2731.49C437.16 2729.04 437.7 2726.55 438.2 2724.1C434.08 2717.43 430.34 2709.93 427.57 2701.43C409.69 2646.49 451.07 2614.58 459.13 2529H459.14Z" fill="url(#paint5_linear_2_68)"/>
<path d="M192.05 2113.14C202.57 2115.02 213.09 2116.89 223.61 2118.77C230.11 2099.09 239.53 2069.42 249.69 2032.9C261.3 1991.13 267.27 1964.14 269.81 1954.24C279.93 1914.85 309.54 1859.58 396.79 1792.3C395.92 1835.1 395.25 1870.32 394.8 1894.51C391.17 2088.63 391.38 2123.87 417.17 2143.22C439.59 2160.05 451.97 2142.82 553.82 2144.76C646.7 2146.53 666.25 2161.42 689.84 2144.36C728.12 2116.68 713.25 2050.97 713.85 1968.88C714.35 1901.14 725.5 1805.28 774.71 1688.26C810.94 1691.78 871.53 1692.74 940.38 1669.1C1047.3 1632.39 1108.05 1559.06 1130.84 1528.23C1123.33 1518.09 1115.81 1507.94 1108.3 1497.8C1069.85 1514.58 1010.44 1536.73 935.42 1548.99C805.37 1570.24 745.59 1542.62 624.82 1547.38C555.27 1550.13 413.21 1555.74 317.15 1628.52C140.49 1762.37 185.72 2073.14 192.06 2113.12L192.05 2113.14Z" fill="#203281"/>
<path style="mix-blend-mode:multiply" opacity="0.3" d="M529.02 2090.6C523.64 2060.62 539.79 2047.99 531.27 2013.96C519.25 1965.95 480.7 1965.57 471.54 1924.93C462.8 1886.17 495.16 1874.53 503.1 1813.36C508.93 1768.39 500.69 1703.37 470.42 1692.77C432.75 1679.58 377.39 1756.37 371.24 1764.9C349.96 1794.42 337.59 1824.9 330.35 1852.14C347.58 1833.46 369.32 1813.47 396.79 1792.3C395.92 1835.1 395.25 1870.32 394.8 1894.51C391.17 2088.63 391.38 2123.87 417.17 2143.22C439.59 2160.05 451.97 2142.82 553.82 2144.76C556.73 2144.82 559.36 2144.92 562.13 2145C540.13 2124.86 531.78 2106 529.02 2090.61V2090.6Z" fill="#F5F5F5"/>
<path d="M560.18 1491.85C560.18 1491.85 557.04 1516.86 547.74 1535.03C539.34 1551.45 501.45 1559.16 493.64 1562.35C485.83 1565.54 506.51 1578.35 528 1582.27C549.49 1586.18 611.75 1586.22 623.56 1578.9C635.37 1571.58 615.21 1570.59 600.2 1563.67C585.19 1556.75 578.68 1525.8 582.5 1512.29C586.33 1498.78 560.18 1491.84 560.18 1491.84V1491.85Z" fill="url(#paint6_linear_2_68)"/>
<path d="M600.16 1482.56C605.26 1473.94 602.01 1458.31 592.02 1451.58C584.61 1446.59 576.11 1448.27 569.92 1449.5C567.06 1450.07 546.93 1454.31 542.32 1469.23C540.86 1473.97 541.46 1480.25 543.61 1485.1C544.72 1487.6 546.77 1490.67 551.3 1496.51C555.32 1501.69 555.05 1501.52 556.28 1503.02C559.22 1506.63 564.86 1512.67 574.96 1519.48C575.36 1516.71 576.03 1513.27 577.27 1509.49C577.75 1508.03 579.67 1502.34 582.95 1497.46C589.6 1487.55 596.17 1489.31 600.15 1482.56H600.16Z" fill="url(#paint7_linear_2_68)"/>
<path d="M562.16 1512.94C562.16 1512.94 573.02 1527.43 591.58 1524.41C608.2 1521.71 607.04 1483.97 595.59 1477.05C591.77 1474.74 584.53 1474.32 578.88 1476.51C575.54 1477.8 574.52 1479.34 569.03 1481.34C563.97 1483.19 562.44 1482.75 561 1484.22C559.2 1486.06 558.15 1490.24 562.48 1500.89C558.98 1497.96 555.03 1497.09 552.44 1498.64C552.03 1498.89 550.95 1499.78 550.42 1501.02C548.49 1505.53 552.93 1510.62 562.15 1512.94H562.16Z" fill="url(#paint8_linear_2_68)"/>
<path d="M558.39 1491.61C558.39 1491.61 565.47 1504.73 569.41 1507.83C573.35 1510.93 582.23 1512.82 590.86 1508.11C599.48 1503.4 604.27 1499 604.27 1499C604.27 1499 607.8 1517.18 605.65 1519.43C603.5 1521.68 587.6 1531.41 583.04 1530.72C578.47 1530.03 567.32 1521.03 564.73 1515.46C562.15 1509.89 559.04 1495.42 559.04 1495.42L558.39 1491.62V1491.61Z" fill="url(#paint9_linear_2_68)"/>
<path d="M1790.47 57.76L1729.91 155.96L1720.71 170.86C1720.71 170.86 1716.81 169.56 1709.48 167.16C1705.84 165.85 1701.26 164.56 1695.89 162.98C1690.53 161.28 1684.28 159.75 1677.26 157.95C1663.23 154.54 1645.99 150.77 1625.88 148.1C1605.8 145.42 1582.88 143.53 1557.72 143.73C1532.59 143.9 1505.27 146.09 1476.63 150.95C1462.35 153.65 1447.67 156.54 1432.94 160.69C1431.09 161.17 1429.22 161.67 1427.36 162.15C1425.51 162.7 1423.66 163.28 1421.81 163.82C1418.11 164.95 1414.37 166.07 1410.62 167.18C1403.25 169.78 1395.65 172.1 1388.23 175.05C1358.26 186.19 1328.37 200.95 1299.58 218.87C1285.22 227.88 1271.23 237.82 1257.53 248.31L1247.46 256.49C1245.8 257.86 1244.03 259.21 1242.46 260.56L1237.72 264.69L1232.97 268.8C1231.4 270.18 1229.85 271.46 1228.11 273.16L1217.94 282.75L1216.66 283.95L1215.12 283.7L1214.04 283.02L1213.9 283.17L1212.64 286.16L1208.47 291.23C1205.4 294.32 1202.49 297.59 1199.59 300.84L1190.81 310.54C1187.97 313.87 1185.18 317.22 1182.33 320.52C1171.08 333.84 1160.39 347.61 1150.69 361.95L1147 367.31L1143.51 372.76C1141.19 376.39 1138.82 380 1136.57 383.66C1132.2 391.07 1127.71 398.37 1123.74 405.93C1119.53 413.33 1115.87 420.98 1112.05 428.52C1110.23 432.33 1108.52 436.16 1106.77 439.97C1105.89 441.87 1105.02 443.78 1104.14 445.68C1103.33 447.61 1102.54 449.53 1101.75 451.45C1095.09 466.74 1089.69 482.23 1084.72 497.56C1082.4 505.28 1080.02 512.88 1078.11 520.53C1075.98 528.14 1074.35 535.77 1072.6 543.28C1066.04 573.4 1062.63 602.58 1061.27 629.64C1059.92 656.74 1060.85 681.74 1062.91 703.84C1064.98 725.94 1068.26 745.07 1071.39 760.78C1073.06 768.6 1074.5 775.64 1076.07 781.57C1077.59 787.56 1078.79 792.67 1080.08 796.87C1080.72 799.07 1081.27 800.98 1081.74 802.64C1082.74 806.13 1081.18 809.8 1078.1 811.53C1077.68 811.78 1077.24 811.97 1076.76 812.14L1076.15 812.34C1072.22 813.67 1067.93 811.69 1066.42 807.82C1065.78 806.24 1065.06 804.38 1064.22 802.25C1062.57 798.25 1060.78 793 1058.64 786.89C1056.35 780.76 1054.21 773.69 1051.71 765.76C1046.94 749.87 1041.67 730.32 1037.31 707.46C1033 684.62 1029.53 658.46 1028.24 629.67C1026.98 600.91 1027.64 569.49 1031.63 536.46C1032.73 528.21 1033.72 519.83 1035.25 511.41C1036.54 502.95 1038.3 494.46 1040.07 485.87C1043.85 468.76 1048.17 451.31 1053.84 433.88C1054.52 431.7 1055.19 429.51 1055.89 427.32C1056.64 425.14 1057.39 422.96 1058.16 420.8C1059.69 416.44 1061.17 412.03 1062.77 407.67C1066.17 399.01 1069.43 390.18 1073.31 381.55C1076.92 372.79 1081.08 364.23 1085.18 355.54C1087.29 351.24 1089.54 347 1091.74 342.69L1095.09 336.28L1098.62 329.94C1107.93 312.9 1118.46 296.36 1129.69 280.18C1132.54 276.15 1135.41 272.14 1138.27 268.12L1147.25 256.34C1150.22 252.36 1153.4 248.57 1156.54 244.75L1161.27 238.98L1163.62 236.11L1166.39 233L1175.62 222.5C1177.05 220.79 1178.88 218.89 1180.64 217.04L1185.94 211.45L1191.25 205.88C1193.02 204.01 1194.8 202.38 1196.57 200.61C1200.12 197.14 1203.67 193.63 1207.22 190.16C1221.77 176.62 1236.82 163.65 1252.5 151.62C1283.86 127.65 1317.27 107.02 1351.41 90.46C1359.87 86.15 1368.56 82.51 1377.06 78.63C1381.37 76.85 1385.66 75.09 1389.95 73.33C1392.09 72.48 1394.24 71.6 1396.36 70.73C1398.52 69.92 1400.68 69.15 1402.83 68.35C1419.95 61.74 1437.15 56.56 1453.99 51.72C1487.82 42.58 1520.68 36.78 1551.3 33.64C1581.93 30.47 1610.33 30.09 1635.48 31.03C1660.63 31.97 1682.51 34.56 1700.49 37.17C1709.46 38.55 1717.49 39.79 1724.4 41.23C1731.34 42.57 1737.27 43.68 1742.01 44.84C1751.53 47.02 1790.47 57.79 1790.47 57.79V57.76Z" fill="#F5F5F5"/>
<path style="mix-blend-mode:multiply" opacity="0.3" d="M1726.37 152.38C1727.67 153.49 1728.85 154.69 1729.91 155.96L1720.71 170.86C1720.71 170.86 1716.81 169.56 1709.48 167.16C1705.84 165.85 1701.26 164.56 1695.89 162.98C1690.53 161.28 1684.28 159.75 1677.26 157.95C1663.23 154.54 1645.99 150.77 1625.88 148.1C1605.8 145.42 1582.88 143.53 1557.72 143.73C1532.59 143.9 1505.27 146.09 1476.63 150.95C1462.35 153.65 1447.67 156.54 1432.94 160.69C1431.09 161.17 1429.22 161.67 1427.36 162.15C1425.51 162.7 1423.66 163.28 1421.81 163.82C1418.11 164.95 1414.37 166.07 1410.62 167.18C1403.25 169.78 1395.65 172.1 1388.23 175.05C1358.26 186.19 1328.37 200.95 1299.58 218.87C1285.22 227.88 1271.23 237.82 1257.53 248.31L1247.46 256.49C1245.8 257.86 1244.03 259.21 1242.46 260.56L1237.72 264.69L1232.97 268.8C1231.4 270.18 1229.85 271.46 1228.11 273.16L1217.94 282.75L1216.66 283.95L1215.12 283.7L1214.04 283.02L1213.9 283.17L1212.64 286.16L1208.47 291.23C1205.4 294.32 1202.49 297.59 1199.59 300.84L1190.81 310.54C1187.97 313.87 1185.18 317.22 1182.33 320.52C1171.08 333.84 1160.39 347.61 1150.69 361.95L1147 367.31L1143.51 372.76C1141.19 376.39 1138.82 380 1136.57 383.66C1132.2 391.07 1127.71 398.37 1123.74 405.93C1119.53 413.33 1115.87 420.98 1112.05 428.52C1110.23 432.33 1108.52 436.16 1106.77 439.97C1105.89 441.87 1105.02 443.78 1104.14 445.68C1103.33 447.61 1102.54 449.53 1101.75 451.45C1095.09 466.74 1089.69 482.23 1084.72 497.56C1082.4 505.28 1080.02 512.88 1078.11 520.53C1075.98 528.14 1074.35 535.77 1072.6 543.28C1066.04 573.4 1062.63 602.58 1061.27 629.64C1059.92 656.74 1060.85 681.74 1062.91 703.84C1064.98 725.94 1068.26 745.07 1071.39 760.78C1073.06 768.6 1074.5 775.64 1076.07 781.57C1077.59 787.56 1078.79 792.67 1080.08 796.87C1080.72 799.07 1081.27 800.98 1081.74 802.64C1082.74 806.13 1081.18 809.8 1078.1 811.53C1062.82 756.06 1006.23 509.06 1153.28 326.72C1319.86 120.17 1616.57 57.51 1726.38 152.42L1726.37 152.38Z" fill="#203281"/>
<path d="M1822.46 23.16L1942.68 251.44L1625.14 203.88L1822.46 23.16Z" fill="#F5F5F5"/>
<path style="mix-blend-mode:multiply" opacity="0.3" d="M1822.46 23.16L1942.68 251.44L1625.14 203.88L1822.46 23.16Z" fill="#203281"/>
<path d="M1833.62 11.17L1943.87 250.15L1637.26 192.78L1833.62 11.17Z" fill="#203281"/>
<path d="M1976.96 2409.46L2020.33 2302.55L2026.92 2286.32C2026.92 2286.32 2030.98 2286.95 2038.61 2288.1C2042.41 2288.79 2047.14 2289.3 2052.7 2289.96C2058.27 2290.74 2064.69 2291.21 2071.91 2291.82C2086.31 2292.84 2103.94 2293.69 2124.21 2292.98C2144.46 2292.28 2167.37 2290.32 2192.15 2285.94C2216.9 2281.59 2243.47 2274.88 2270.91 2265.32C2284.54 2260.28 2298.53 2254.98 2312.36 2248.44C2314.11 2247.66 2315.87 2246.85 2317.62 2246.07C2319.36 2245.22 2321.08 2244.34 2322.82 2243.5C2326.28 2241.77 2329.78 2240.04 2333.29 2238.32C2340.13 2234.53 2347.23 2230.98 2354.06 2226.83C2381.76 2210.86 2408.77 2191.33 2434.18 2168.87C2446.84 2157.59 2458.98 2145.46 2470.74 2132.84L2479.3 2123.09C2480.71 2121.47 2482.23 2119.84 2483.56 2118.25L2487.54 2113.39L2491.54 2108.54C2492.86 2106.92 2494.18 2105.4 2495.61 2103.44L2504.04 2092.29L2505.1 2090.89L2506.66 2090.88L2507.84 2091.37L2507.95 2091.2L2508.7 2088.04L2511.97 2082.35C2514.48 2078.79 2516.8 2075.08 2519.12 2071.39L2526.17 2060.37C2528.41 2056.61 2530.6 2052.84 2532.87 2049.11C2541.74 2034.11 2549.99 2018.75 2557.17 2002.99L2559.91 1997.09L2562.45 1991.14C2564.13 1987.17 2565.86 1983.22 2567.47 1979.24C2570.55 1971.2 2573.76 1963.26 2576.42 1955.14C2579.34 1947.14 2581.67 1938.99 2584.18 1930.92C2585.34 1926.86 2586.39 1922.8 2587.48 1918.75C2588.03 1916.73 2588.57 1914.7 2589.13 1912.68C2589.6 1910.64 2590.06 1908.62 2590.52 1906.6C2594.54 1890.41 2597.29 1874.24 2599.64 1858.29C2600.64 1850.3 2601.72 1842.4 2602.33 1834.54C2603.16 1826.69 2603.5 1818.89 2603.98 1811.19C2605.43 1780.4 2603.93 1751.06 2600.77 1724.15C2597.59 1697.21 2592.51 1672.71 2586.8 1651.26C2581.08 1629.81 2574.66 1611.5 2568.96 1596.53C2566.01 1589.1 2563.42 1582.39 2560.88 1576.81C2558.38 1571.15 2556.35 1566.32 2554.38 1562.39C2553.38 1560.33 2552.52 1558.53 2551.78 1556.98C2550.21 1553.7 2551.14 1549.82 2553.89 1547.6C2554.26 1547.29 2554.66 1547.03 2555.11 1546.78L2555.68 1546.48C2559.33 1544.51 2563.89 1545.75 2566.02 1549.32C2566.92 1550.77 2567.94 1552.48 2569.12 1554.44C2571.41 1558.11 2574.05 1562.99 2577.18 1568.66C2580.46 1574.32 2583.75 1580.94 2587.53 1588.34C2594.88 1603.21 2603.33 1621.61 2611.44 1643.43C2619.49 1665.23 2627.27 1690.45 2633.33 1718.62C2639.36 1746.77 2643.94 1777.86 2645.51 1811.1C2645.8 1819.42 2646.22 1827.84 2646.11 1836.4C2646.25 1844.96 2645.92 1853.62 2645.61 1862.39C2644.73 1879.89 2643.38 1897.81 2640.69 1915.94C2640.38 1918.21 2640.08 1920.48 2639.76 1922.75C2639.38 1925.03 2639.01 1927.3 2638.61 1929.56C2637.82 1934.11 2637.1 1938.71 2636.25 1943.27C2634.34 1952.38 2632.59 1961.63 2630.2 1970.78C2628.1 1980.02 2625.42 1989.16 2622.83 1998.41C2621.46 2003 2619.95 2007.55 2618.5 2012.17L2616.26 2019.05L2613.84 2025.89C2607.5 2044.24 2599.87 2062.3 2591.49 2080.13C2589.35 2084.57 2587.19 2089.01 2585.03 2093.45L2578.14 2106.56C2575.88 2110.98 2573.37 2115.24 2570.91 2119.53L2567.21 2126.01L2565.37 2129.23L2563.15 2132.76L2555.8 2144.65C2554.68 2146.57 2553.19 2148.75 2551.76 2150.87L2547.47 2157.26L2543.16 2163.64C2541.72 2165.78 2540.24 2167.68 2538.79 2169.72C2535.87 2173.73 2532.95 2177.79 2530.03 2181.8C2517.93 2197.57 2505.25 2212.87 2491.8 2227.34C2464.86 2256.2 2435.36 2282.1 2404.45 2304.11C2396.82 2309.77 2388.86 2314.81 2381.13 2320.05C2377.17 2322.52 2373.24 2324.97 2369.3 2327.42C2367.33 2328.62 2365.36 2329.84 2363.41 2331.05C2361.42 2332.21 2359.41 2333.33 2357.43 2334.48C2341.65 2343.84 2325.55 2351.82 2309.75 2359.39C2277.91 2374.04 2246.48 2385.23 2216.81 2393.42C2187.13 2401.65 2159.19 2406.75 2134.24 2410.01C2109.28 2413.27 2087.28 2414.36 2069.11 2414.78C2060.04 2414.91 2051.91 2415.03 2044.86 2414.76C2037.8 2414.59 2031.76 2414.48 2026.9 2414.13C2017.15 2413.57 1976.96 2409.43 1976.96 2409.43L1976.96 2409.46Z" fill="#F5F5F5"/>
<path style="mix-blend-mode:multiply" opacity="0.3" d="M2024.41 2305.49C2022.95 2304.61 2021.58 2303.62 2020.33 2302.55L2026.92 2286.32C2026.92 2286.32 2030.98 2286.95 2038.61 2288.1C2042.41 2288.79 2047.14 2289.3 2052.7 2289.96C2058.27 2290.74 2064.69 2291.21 2071.91 2291.82C2086.31 2292.84 2103.94 2293.69 2124.21 2292.98C2144.46 2292.28 2167.37 2290.32 2192.15 2285.94C2216.9 2281.59 2243.47 2274.88 2270.91 2265.32C2284.54 2260.28 2298.53 2254.98 2312.36 2248.44C2314.11 2247.66 2315.87 2246.85 2317.62 2246.07C2319.36 2245.22 2321.08 2244.34 2322.82 2243.5C2326.28 2241.77 2329.78 2240.04 2333.29 2238.32C2340.13 2234.53 2347.23 2230.98 2354.06 2226.83C2381.76 2210.86 2408.77 2191.33 2434.18 2168.87C2446.84 2157.59 2458.98 2145.46 2470.74 2132.84L2479.3 2123.09C2480.71 2121.47 2482.23 2119.84 2483.56 2118.25L2487.54 2113.39L2491.54 2108.54C2492.86 2106.92 2494.18 2105.4 2495.61 2103.44L2504.04 2092.29L2505.1 2090.89L2506.66 2090.88L2507.84 2091.37L2507.95 2091.2L2508.7 2088.04L2511.97 2082.35C2514.48 2078.79 2516.8 2075.08 2519.12 2071.39L2526.17 2060.37C2528.41 2056.61 2530.6 2052.84 2532.87 2049.11C2541.74 2034.11 2549.99 2018.75 2557.17 2002.99L2559.91 1997.09L2562.45 1991.14C2564.13 1987.17 2565.86 1983.22 2567.47 1979.24C2570.55 1971.2 2573.76 1963.26 2576.42 1955.14C2579.34 1947.14 2581.67 1938.99 2584.18 1930.92C2585.34 1926.86 2586.39 1922.8 2587.48 1918.75C2588.03 1916.73 2588.57 1914.7 2589.13 1912.68C2589.6 1910.64 2590.06 1908.62 2590.52 1906.6C2594.54 1890.41 2597.29 1874.24 2599.64 1858.29C2600.64 1850.29 2601.72 1842.4 2602.33 1834.54C2603.16 1826.69 2603.5 1818.89 2603.98 1811.19C2605.43 1780.4 2603.93 1751.06 2600.77 1724.15C2597.59 1697.21 2592.51 1672.71 2586.8 1651.26C2581.08 1629.81 2574.66 1611.5 2568.96 1596.53C2566.01 1589.1 2563.42 1582.39 2560.88 1576.81C2558.38 1571.15 2556.35 1566.32 2554.38 1562.39C2553.38 1560.33 2552.52 1558.53 2551.78 1556.98C2550.21 1553.7 2551.14 1549.82 2553.89 1547.6C2578.19 1599.76 2675.12 1833.89 2560.48 2038.16C2430.61 2269.57 2148.48 2380.75 2024.4 2305.45L2024.41 2305.49Z" fill="#203281"/>
<path d="M1951.18 2448.9L1794.63 2243.82L2115.66 2237.85L1951.18 2448.9Z" fill="#F5F5F5"/>
<path style="mix-blend-mode:multiply" opacity="0.3" d="M1951.18 2448.9L1794.63 2243.82L2115.66 2237.85L1951.18 2448.9Z" fill="#203281"/>
<path d="M1942.17 2462.58L1793.67 2245.29L2105.55 2250.81L1942.17 2462.58Z" fill="#203281"/>
<defs>
<linearGradient id="paint0_linear_2_68" x1="1197.69" y1="1440.9" x2="988.07" y2="1632.48" gradientUnits="userSpaceOnUse">
<stop stop-color="#FFC444"/>
<stop offset="1" stop-color="#F36F56"/>
</linearGradient>
<linearGradient id="paint1_linear_2_68" x1="177.63" y1="2264.78" x2="227.22" y2="1933.44" gradientUnits="userSpaceOnUse">
<stop stop-color="#FFC444"/>
<stop offset="1" stop-color="#F36F56"/>
</linearGradient>
<linearGradient id="paint2_linear_2_68" x1="423.83" y1="2751.15" x2="437.35" y2="2609.9" gradientUnits="userSpaceOnUse">
<stop stop-color="#FFC444"/>
<stop offset="1" stop-color="#F36F56"/>
</linearGradient>
<linearGradient id="paint3_linear_2_68" x1="639.07" y1="2771.76" x2="652.6" y2="2630.52" gradientUnits="userSpaceOnUse">
<stop stop-color="#FFC444"/>
<stop offset="1" stop-color="#F36F56"/>
</linearGradient>
<linearGradient id="paint4_linear_2_68" x1="464.37" y1="2732.72" x2="674.74" y2="1942.32" gradientUnits="userSpaceOnUse">
<stop stop-color="#444B8C"/>
<stop offset="1" stop-color="#26264F"/>
</linearGradient>
<linearGradient id="paint5_linear_2_68" x1="395.11" y1="2714.28" x2="605.48" y2="1923.89" gradientUnits="userSpaceOnUse">
<stop stop-color="#444B8C"/>
<stop offset="1" stop-color="#26264F"/>
</linearGradient>
<linearGradient id="paint6_linear_2_68" x1="592.024" y1="1616.14" x2="518.839" y2="1508.5" gradientUnits="userSpaceOnUse">
<stop stop-color="#FFC444"/>
<stop offset="1" stop-color="#F36F56"/>
</linearGradient>
<linearGradient id="paint7_linear_2_68" x1="545.831" y1="1566.98" x2="577.732" y2="1454.02" gradientUnits="userSpaceOnUse">
<stop stop-color="#444B8C"/>
<stop offset="1" stop-color="#3E4177"/>
</linearGradient>
<linearGradient id="paint8_linear_2_68" x1="647.025" y1="1533.39" x2="530.17" y2="1469.74" gradientUnits="userSpaceOnUse">
<stop stop-color="#FFC444"/>
<stop offset="1" stop-color="#F36F56"/>
</linearGradient>
<linearGradient id="paint9_linear_2_68" x1="638.041" y1="1545.61" x2="563.223" y2="1494.57" gradientUnits="userSpaceOnUse">
<stop stop-color="#444B8C"/>
<stop offset="1" stop-color="#3E4177"/>
</linearGradient>
</defs>
</svg>
